<svg id="Layer_1" data-name="Layer 1" xmlns="http://www.w3.org/2000/svg" viewBox="0 0 120 39.94"><title>logo</title><polygon points="23.08 26.61 15.39 13.28 0 39.94 46.17 39.94 30.78 13.28 23.08 26.61"/><path d="M56.52,13.31A13.32,13.32,0,1,0,69.83,26.62,13.31,13.31,0,0,0,56.52,13.31Z"/><path d="M72.14,26.62a13.32,13.32,0,1,0,26.63,0Z"/><path d="M106.71,13.31V0a13.31,13.31,0,0,0,0,26.62c0,6.66,0,13.31,0,13.31a13.31,13.31,0,0,0,0-26.62Z"/><path d="M109.78,0a1.5,1.5,0,1,1-1.5,1.5A1.5,1.5,0,0,1,109.78,0Zm0,2.67a1.17,1.17,0,1,0-1.17-1.17A1.17,1.17,0,0,0,109.78,2.67ZM109.22.81a.09.09,0,0,1,.08-.08H110a.51.51,0,0,1,.51.52.47.47,0,0,1-.3.46l.2.44a.08.08,0,0,1-.07.11h-.23A.09.09,0,0,1,110,2.2l-.19-.47h-.21v.45a.09.09,0,0,1-.08.08h-.21a.09.09,0,0,1-.08-.08Zm.68.62a.17.17,0,0,0,.17-.18.16.16,0,0,0-.17-.17h-.33v.35Z"/></svg>